<svg version="1.2" xmlns="http://www.w3.org/2000/svg" viewBox="0 0 93 93" width="93" height="93">
	<title>badge-check-free-icon-font-svg</title>
	<style>
		.s0 { fill: #04aa6d } 
	</style>
	<g id="Layer">
		<path id="Layer" fill-rule="evenodd" class="s0" d="m46.5 93c-6.3 0-12.2-2.7-16.2-7.4-6.1 0.4-12.3-1.8-16.7-6.2-4.4-4.5-6.6-10.6-6.2-16.7-4.7-4-7.4-9.9-7.4-16.2 0-6.3 2.7-12.2 7.4-16.2-0.4-6.1 1.8-12.2 6.2-16.7 4.4-4.4 10.6-6.6 16.7-6.2 4-4.7 9.9-7.4 16.2-7.4 6.3 0 12.2 2.7 16.2 7.4 6.1-0.4 12.3 1.8 16.7 6.2 4.4 4.5 6.6 10.6 6.2 16.7 4.7 4 7.4 9.9 7.4 16.2 0 6.3-2.7 12.2-7.4 16.2 0.4 6.1-1.8 12.2-6.2 16.7-4.4 4.4-10.6 6.6-16.7 6.2-4 4.7-9.9 7.4-16.2 7.4zm-12.7-15.9l1.4 2.2c2.6 3.7 6.8 6 11.3 6 4.5 0 8.7-2.3 11.3-6l1.4-2.2 2.5 0.5c4.5 0.9 9-0.5 12.2-3.7 3.2-3.2 4.6-7.8 3.7-12.2l-0.5-2.5 2.2-1.4c3.7-2.6 5.9-6.8 5.9-11.3 0-4.5-2.2-8.7-5.9-11.2l-2.2-1.5 0.5-2.5c0.9-4.4-0.5-9-3.7-12.2-3.2-3.2-7.8-4.6-12.2-3.7l-2.5 0.5-1.4-2.2c-2.6-3.7-6.8-5.9-11.3-5.9-4.5 0-8.7 2.2-11.3 5.9l-1.4 2.2-2.5-0.5c-4.4-0.9-9 0.5-12.2 3.7-3.2 3.2-4.6 7.8-3.7 12.2l0.5 2.5-2.2 1.5c-3.7 2.5-5.9 6.7-5.9 11.2 0 4.5 2.2 8.7 5.9 11.3l2.2 1.4-0.5 2.5c-0.9 4.4 0.5 9 3.7 12.2 3.2 3.2 7.7 4.6 12.2 3.7zm6.9-15.1c-2 0-4-0.8-5.5-2.3l-10.8-10.4 5.4-5.6 10.8 10.5 22.5-22.1 5.5 5.5-22.5 22.1c-1.5 1.5-3.4 2.3-5.4 2.3z"/>
	</g>
</svg>