<svg version="1.2" xmlns="http://www.w3.org/2000/svg" viewBox="0 0 93 93" width="93" height="93">
	<title>clock-free-icon-font-svg</title>
	<style>
		.s0 { fill: #04aa6d } 
	</style>
	<g id="Layer">
		<path id="Layer" fill-rule="evenodd" class="s0" d="m64.3 3.6c5.6 2.3 10.7 5.7 15.1 10 4.3 4.4 7.7 9.5 10 15.1 2.4 5.7 3.6 11.7 3.6 17.8 0 18.8-11.3 35.8-28.7 43-17.4 7.2-37.4 3.2-50.7-10.1-13.3-13.3-17.3-33.3-10.1-50.7 7.2-17.4 24.2-28.7 43-28.7 6.1 0 12.1 1.2 17.8 3.6zm-3 78.7c4.7-2 9-4.8 12.6-8.4 3.6-3.6 6.4-7.9 8.4-12.6 1.9-4.7 2.9-9.7 3-14.8 0-15.7-9.5-29.8-24-35.8-14.5-6-31.1-2.7-42.2 8.4-11.1 11.1-14.4 27.7-8.4 42.2 6 14.5 20.1 23.9 35.8 23.9 5.1 0 10.1-1 14.8-2.9z"/>
		<path id="Layer" class="s0" d="m48 23.5q0.7 0.3 1.2 0.9 0.6 0.5 0.9 1.2 0.3 0.8 0.3 1.5v18.9q0 0.5-0.1 1-0.2 0.5-0.4 0.9-0.2 0.5-0.6 0.8-0.3 0.4-0.7 0.7l-14.9 9.2c-0.9 0.6-2 0.8-3 0.5-1-0.2-1.8-0.8-2.4-1.7-0.5-0.9-0.7-1.9-0.5-2.9 0.3-1 0.9-1.9 1.8-2.4l13-8.2v-16.8q0-0.7 0.3-1.5 0.3-0.7 0.9-1.2 0.5-0.6 1.2-0.9 0.7-0.2 1.5-0.2 0.8 0 1.5 0.2z"/>
	</g>
</svg>