<svg version="1.2" xmlns="http://www.w3.org/2000/svg" viewBox="0 0 257 250" width="257" height="250">
	<title>programmer-svg</title>
	<style>
		.s0 { fill: #f2f2f2 } 
		.s1 { fill: #e6e6e6 } 
		.s2 { fill: #ffffff } 
		.s3 { fill: #ff6584 } 
		.s4 { fill: #cccccc } 
		.s5 { fill: #ffb8b8 } 
		.s6 { fill: #2f2e41 } 
		.s7 { fill: #04aa6d } 
		.s8 { fill: #3f3d56 } 
		.s9 { opacity: .7;fill: #3f3d56 } 
		.s10 { opacity: .7;fill: #04aa6d } 
		.s11 { opacity: .7;fill: #ff6584 } 
		.s12 { fill: #e4e4e4 } 
		.s13 { opacity: .2;fill: #000000 } 
	</style>
	<path id="Layer" class="s0" d="m248.2 82.9q2.9 7.2 4.8 14.6 1.9 7.5 2.9 15.2 0.9 7.6 0.9 15.3 0 5.4-0.4 10.6-0.3 3.3-0.8 6.6 0 0.2 0 0.4-0.1 0.5-0.2 1-0.6 4.3-1.6 8.4-0.3 1.3-0.6 2.6 0 0.2-0.1 0.4-0.3 1.2-0.6 2.4-0.5 1.9-1.1 3.9-0.6 1.9-1.3 3.8-0.7 1.9-1.4 3.8-0.7 1.9-1.5 3.7-0.7 1.6-1.4 3.2-0.7 1.5-1.4 3-0.8 1.5-1.5 3-0.8 1.4-1.6 2.9-0.8 1.4-1.7 2.9-2.3 3.8-4.9 7.5-2.6 3.7-5.4 7.2-2.9 3.5-6 6.8-3.1 3.2-6.5 6.3-0.4 0.3-0.8 0.7-1.5 1.3-3 2.6-2.3 2-4.8 3.8c-10.4 7.9-22.1 14-34.6 18.2-12.4 4.1-25.4 6.3-38.5 6.3-13.1 0-26.2-2.2-38.6-6.3-12.4-4.2-24.1-10.3-34.6-18.2q-4.5-3.4-8.6-7.1-3.6-3.3-7-6.9-3.3-3.6-6.4-7.4-3-3.8-5.8-7.9-2.7-4-5.1-8.3-0.6-1-1.2-2.1-0.7-1.4-1.4-2.8-0.6-1-1.1-2.1-0.6-1.4-1.2-2.7-0.5-1.1-1-2.2-0.9-2.2-1.8-4.4-0.6-1.6-1.1-3.1-0.6-1.6-1.1-3.2-0.5-1.5-0.9-3.1-0.5-1.6-0.9-3.2-1-3.8-1.8-7.7-0.7-3.8-1.2-7.7-0.5-3.9-0.7-7.8-0.3-3.9-0.3-7.8c0-50.6 30.8-94 74.6-112.4l-0.4 15.5 5.1 179.4h89.3l-1-179.7-0.1-15.8q4 1.6 8 3.6 3.9 1.9 7.6 4.1 3.8 2.2 7.4 4.7 3.6 2.4 7 5.1 1.5 1.2 3 2.5 1.8 1.5 3.5 3.1 1.7 1.6 3.4 3.3 1.7 1.6 3.3 3.4 1.6 1.7 3.2 3.5 3.4 3.9 6.4 8.1 1.1 1.5 2.2 3.1 1 1.5 2 3.1 1 1.6 2 3.2 0.9 1.6 1.8 3.2 3.8 6.7 6.6 13.9z"/>
	<path id="Layer" class="s1" d="m200.4 222.4l-0.1-0.8c-1.8-2.6-3.6-5.3-4.7-8.3-1-3-1.3-6.4 0-9.2 2.2-4.7 7.5-6.7 12-8.9q4.4-2.2 8.4-5.1 3.9-2.9 7.3-6.5 3.4-3.5 6.1-7.6 2.7-4.1 4.6-8.6c5.7 10.7 2.9 24.5-4.3 34.2-7.2 9.8-18.2 16.1-29.3 20.8z"/>
	<path id="Layer" class="s2" d="m234.3 167.4q0 2.1-0.3 4.2-0.2 2-0.6 4.1-0.5 2-1 4-0.6 2-1.4 3.9-0.6 1.7-1.4 3.3-0.8 1.7-1.7 3.3-0.9 1.5-2 3-1 1.5-2.1 2.9-0.5 0.7-1.1 1.3-0.5 0.6-1.1 1.1-0.6 0.5-1.3 1-0.6 0.5-1.3 0.9-0.7 0.4-1.4 0.7-0.7 0.3-1.4 0.5-0.7 0.3-1.5 0.4-0.8 0.1-1.5 0.1c-2 0.2-4.1 0.1-6 0.8-2.1 0.9-3.4 2.9-4 5-1.4 4.6 0.1 9.8-2.2 14.1-0.1 0.4-0.6 0.1-0.5-0.2 1.3-2.5 1.4-5.4 1.4-8.2 0.1-2.5 0.3-5 1.3-7.3q0.3-0.7 0.7-1.4 0.5-0.6 1-1.1 0.6-0.5 1.2-0.9 0.7-0.4 1.4-0.7c1.9-0.6 3.9-0.5 5.9-0.6q0.8-0.1 1.5-0.2 0.8-0.2 1.6-0.4 0.7-0.2 1.4-0.6 0.7-0.3 1.4-0.8 0.6-0.4 1.3-0.9 0.6-0.6 1.2-1.1 0.5-0.6 1.1-1.2 0.5-0.6 1-1.3 2.3-2.9 4.1-6.2 1.8-3.3 3-6.8 1.3-3.5 2-7.2 0.7-3.7 0.8-7.4c0-0.4 0.5-0.4 0.5-0.1z"/>
	<path id="Layer" class="s2" d="m226.2 192.2q1.1 0.6 2.2 0.8 1.2 0.2 2.4 0 1.1-0.2 2.1-0.8 1.1-0.6 1.8-1.5c0.2-0.3 0.6 0 0.4 0.3q-0.8 1-1.9 1.7-1.1 0.6-2.3 0.8-1.3 0.3-2.5 0-1.3-0.2-2.4-0.8c-0.3-0.2-0.1-0.7 0.2-0.5z"/>
	<path id="Layer" class="s2" d="m213.9 201.8q-0.4-1.3-0.5-2.6-0.1-1.4 0-2.7 0.2-1.3 0.5-2.6 0.4-1.3 1-2.5c0.2-0.3 0.7-0.1 0.5 0.2q-0.6 1.2-1 2.4-0.3 1.2-0.4 2.5-0.2 1.3-0.1 2.6 0.1 1.3 0.5 2.5c0.1 0.4-0.4 0.5-0.5 0.2z"/>
	<path id="Layer" class="s2" d="m232.4 178.5q0 0.1 0.1 0.1 0 0.1 0 0.1 0 0.1 0 0.1-0.1 0.1-0.1 0.1 0 0-0.1 0.1 0 0-0.1 0-0.1 0-0.1-0.1-0.5-0.1-1-0.4-0.5-0.3-0.8-0.7-0.4-0.4-0.7-0.9-0.3-0.5-0.4-1c-0.1-0.4 0.4-0.6 0.5-0.2q0.1 0.5 0.4 0.9 0.2 0.4 0.6 0.8 0.3 0.4 0.7 0.6 0.4 0.3 0.9 0.5 0.1 0 0.1 0z"/>
	<path id="Layer" class="s1" d="m194.5 159.1c7 3.6 12 10.3 14.5 17.9q0.5 1.4 0.9 2.9 0.3 1.4 0.6 2.9 0.2 1.5 0.4 3 0.1 1.5 0.1 3 0 0.6 0 1.2 0 0.6 0 1.1 0 0.6-0.1 1.2 0 0.6-0.1 1.2-0.1 1-0.2 2.1-0.2 1-0.4 2.1-0.1 1-0.4 2.1-0.2 1-0.5 2.1 0 0.2-0.1 0.5c-1.7 6.1-4.3 12-7.4 17.5q0 0.1 0 0.1-0.6 1.1-1.2 2.1 0 0.1-0.1 0.2 0 0 0 0 0 0.1-0.1 0.1 0 0.2-0.1 0.3-0.1 0.1-0.2 0.3l-0.6-0.5q0-0.1-0.1-0.1l-14.3-13.6q0-0.2 0-0.3 0-0.2 0-0.3 0-0.1 0-0.3 0.1-0.1 0.1-0.3c0.5-3.7 2.6-7.2 4.3-10.7q0.5-0.9 0.9-1.8 0.5-1 0.9-1.9 0.4-1 0.7-2 0.4-0.9 0.7-1.9 0.8-2.5 1.4-5.1 0.6-2.5 0.9-5.1 0.3-2.6 0.4-5.2 0.1-2.6 0-5.2 0-0.3-0.1-0.7 0-1-0.1-2.1-0.2-1.1-0.3-2.2-0.2-1.1-0.4-2.1-0.2-1.1-0.4-2.1-0.1-0.4-0.2-0.7 0.3 0.2 0.6 0.3z"/>
	<path id="Layer" class="s2" d="m194.2 158.7q1.2 1.7 2.2 3.5 1.1 1.8 2 3.6 0.8 1.9 1.6 3.9 0.7 1.9 1.3 3.9 0.5 1.8 0.8 3.5 0.4 1.8 0.6 3.6 0.2 1.8 0.3 3.6 0.1 1.9 0 3.7 0 0.8-0.1 1.6-0.1 0.8-0.2 1.6-0.2 0.8-0.4 1.6-0.2 0.7-0.5 1.5-0.3 0.7-0.7 1.4-0.4 0.6-0.8 1.2-0.5 0.7-1 1.2-0.6 0.6-1.2 1.1c-1.5 1.2-3.2 2.4-4.2 4.2-1.2 2-1 4.3-0.3 6.4 1.7 4.5 6 7.7 6.8 12.6 0.1 0.3-0.4 0.4-0.5 0.1-0.5-2.8-2.2-5.1-3.8-7.4-1.4-2-2.9-4.1-3.4-6.6q-0.2-0.8-0.2-1.5-0.1-0.8 0.1-1.5 0.1-0.8 0.4-1.5 0.3-0.7 0.7-1.3c1.1-1.7 2.8-2.8 4.3-4.1q0.6-0.5 1.1-1.1 0.6-0.6 1-1.2 0.4-0.7 0.8-1.4 0.4-0.7 0.6-1.4 0.3-0.8 0.5-1.6 0.1-0.8 0.3-1.6 0.1-0.8 0.1-1.6 0.1-0.8 0.1-1.6 0-3.7-0.5-7.4-0.5-3.7-1.6-7.3-1.2-3.6-2.8-6.9-1.7-3.4-3.8-6.5c-0.2-0.2 0.2-0.6 0.4-0.3z"/>
	<path id="Layer" class="s2" d="m202.6 183.4q1.2-0.2 2.2-0.7 1.1-0.6 1.9-1.4 0.8-0.9 1.3-2 0.4-1.1 0.5-2.3c0-0.3 0.5-0.3 0.5 0q-0.1 1.3-0.5 2.5-0.5 1.2-1.4 2.1-0.9 1-2 1.5-1.1 0.6-2.4 0.8c-0.3 0-0.4-0.5-0.1-0.5z"/>
	<path id="Layer" class="s2" d="m198.5 198.5q-1-0.8-1.9-1.8-0.9-1-1.6-2.2-0.7-1.1-1.2-2.4-0.5-1.3-0.7-2.6c-0.1-0.3 0.5-0.4 0.5-0.1q0.2 1.3 0.7 2.5 0.4 1.2 1.1 2.3 0.7 1.1 1.5 2.1 0.9 0.9 1.9 1.7c0.3 0.2 0 0.7-0.3 0.5z"/>
	<path id="Layer" class="s2" d="m199.3 168.7q0.1 0 0.1 0 0.1 0.1 0.1 0.1 0 0.1 0 0.1 0 0.1 0 0.1 0 0.1 0 0.1 0 0.1-0.1 0.1 0 0-0.1 0-0.5 0.2-1.1 0.2-0.5 0.1-1.1 0-0.5-0.1-1-0.3-0.5-0.2-1-0.6c-0.2-0.2 0.1-0.6 0.3-0.4q0.4 0.3 0.9 0.5 0.4 0.2 0.9 0.3 0.5 0.1 1 0 0.5 0 1-0.2 0.1 0 0.1 0z"/>
	<path id="Layer" class="s1" d="m5.7 147c-6.4-10.3-8.1-24.2-1.6-34.5q1.6 4.7 4 9 2.3 4.3 5.4 8.1 3.1 3.8 6.8 7 3.7 3.3 7.9 5.8c4.4 2.6 9.5 5 11.2 9.8 1.1 3 0.6 6.4-0.7 9.2-1.3 2.9-3.3 5.4-5.3 7.9l-0.2 0.8c-10.8-5.6-21.1-12.8-27.5-23.1z"/>
	<path id="Layer" class="s2" d="m4.3 112.6q-0.1 3.8 0.3 7.5 0.4 3.7 1.3 7.3 1 3.6 2.5 7.1 1.5 3.4 3.6 6.5 0.4 0.7 0.9 1.4 0.5 0.6 1 1.2 0.5 0.6 1.1 1.2 0.6 0.6 1.2 1.1 0.6 0.5 1.3 0.9 0.7 0.4 1.4 0.7 0.7 0.3 1.5 0.5 0.7 0.2 1.5 0.3c2 0.3 4 0.4 5.8 1.1q0.7 0.3 1.3 0.8 0.7 0.4 1.2 1 0.5 0.6 0.9 1.2 0.3 0.7 0.6 1.4c0.8 2.4 0.8 4.9 0.6 7.4-0.1 2.8-0.3 5.7 0.8 8.3 0.1 0.3-0.4 0.5-0.5 0.2-1.9-4.6 0-9.6-1-14.3-0.5-2.2-1.6-4.2-3.7-5.3-1.8-0.9-3.8-1-5.8-1.2q-0.8-0.1-1.5-0.3-0.8-0.2-1.5-0.5-0.7-0.2-1.4-0.6-0.7-0.4-1.3-0.8-0.6-0.5-1.2-1-0.6-0.6-1.2-1.1-0.5-0.6-1-1.3-0.5-0.6-1-1.3-1-1.5-1.9-3.1-0.9-1.5-1.7-3.2-0.8-1.6-1.4-3.3-0.7-1.7-1.2-3.5-0.6-1.9-1-4-0.4-2-0.7-4.1-0.2-2-0.3-4.1-0.1-2.1 0-4.2c0-0.3 0.6-0.2 0.5 0.1z"/>
	<path id="Layer" class="s2" d="m10.1 138.4q-1.2 0.6-2.5 0.7-1.2 0.1-2.5-0.3-1.2-0.3-2.2-1-1.1-0.8-1.8-1.8c-0.2-0.3 0.3-0.6 0.4-0.3q0.7 1 1.7 1.6 1 0.7 2.1 1 1.1 0.3 2.3 0.2 1.2-0.1 2.3-0.6c0.3-0.1 0.5 0.4 0.2 0.5z"/>
	<path id="Layer" class="s2" d="m20.9 148.3q0.5-1.2 0.7-2.5 0.2-1.3 0.2-2.6-0.1-1.3-0.3-2.5-0.3-1.3-0.8-2.5c-0.1-0.3 0.4-0.5 0.5-0.2q0.5 1.3 0.8 2.6 0.3 1.3 0.3 2.6 0 1.4-0.2 2.7-0.2 1.3-0.7 2.6c-0.1 0.3-0.6 0.1-0.5-0.2z"/>
	<path id="Layer" class="s2" d="m4.9 123.7q0.5-0.1 1-0.3 0.4-0.3 0.8-0.6 0.3-0.3 0.6-0.8 0.3-0.4 0.5-0.9c0.1-0.3 0.6-0.1 0.5 0.3q-0.2 0.5-0.5 0.9-0.3 0.5-0.8 0.9-0.4 0.4-0.9 0.6-0.5 0.3-1 0.4 0 0-0.1 0 0 0-0.1 0 0 0-0.1-0.1 0 0 0 0-0.1-0.1-0.1-0.1 0-0.1 0.1-0.1 0-0.1 0-0.1 0.1-0.1 0.1-0.1z"/>
	<path id="Layer" class="s1" d="m44.8 107.3q-0.1 0.3-0.2 0.6-0.3 1-0.6 2.1-0.3 1-0.6 2.1-0.2 1-0.4 2.1-0.2 1.1-0.4 2.1 0 0.4-0.1 0.7-0.3 2.6-0.4 5.2-0.2 2.6 0 5.2 0.1 2.6 0.5 5.2 0.3 2.6 0.9 5.1 0.3 1 0.6 2 0.2 1 0.6 2 0.3 1 0.6 2 0.4 1 0.8 1.9c1.4 3.6 3.3 7.3 3.4 11q0.1 0.2 0.1 0.3 0 0.1 0 0.3 0 0.1 0 0.3 0 0.1-0.1 0.3l-15.3 12.4q-0.1 0-0.2 0l-0.6 0.6q-0.1-0.2-0.1-0.4-0.1-0.1-0.2-0.3 0 0 0-0.1 0 0 0-0.1-0.1 0-0.1-0.1-0.5-1.1-1.1-2.3 0 0 0 0c-2.6-5.8-4.7-11.8-5.8-18q-0.1-0.3-0.1-0.6-0.2-1.1-0.4-2.1-0.1-1.1-0.2-2.1-0.1-1.1-0.2-2.2-0.1-1-0.1-2.1 0-0.6 0-1.2 0-0.5 0.1-1.1 0-0.6 0-1.2 0.1-0.6 0.1-1.1 0.1-1.6 0.4-3 0.3-1.5 0.6-3 0.4-1.4 0.9-2.9 0.5-1.4 1.1-2.8c3.1-7.3 8.6-13.6 15.9-16.6q0.3-0.1 0.6-0.2z"/>
	<path id="Layer" class="s2" d="m44.9 107.5q-2.4 2.9-4.3 6.1-1.9 3.2-3.3 6.7-1.4 3.4-2.3 7.1-0.8 3.6-1.1 7.4 0 0.8 0 1.6 0 0.8 0 1.6 0.1 0.8 0.2 1.6 0.1 0.8 0.3 1.6 0.2 0.7 0.5 1.5 0.3 0.7 0.7 1.4 0.4 0.7 0.9 1.3 0.5 0.6 1 1.2c1.4 1.4 2.9 2.6 3.9 4.4q0.4 0.6 0.6 1.4 0.3 0.7 0.3 1.4 0.1 0.8 0 1.6-0.1 0.7-0.3 1.4c-0.8 2.5-2.3 4.5-4 6.4-1.7 2.1-3.6 4.3-4.3 7-0.1 0.4-0.6 0.2-0.5-0.1 1.2-4.8 5.7-7.7 7.7-12 1-2 1.3-4.4 0.3-6.4-0.9-1.9-2.5-3.2-3.9-4.6q-0.5-0.5-1-1.1-0.5-0.6-0.9-1.3-0.4-0.6-0.8-1.3-0.3-0.7-0.5-1.4-0.3-0.8-0.4-1.6-0.2-0.8-0.3-1.6 0-0.8-0.1-1.6 0-0.8 0.1-1.6 0.1-1.8 0.3-3.6 0.2-1.8 0.6-3.6 0.3-1.8 0.8-3.6 0.5-1.7 1.2-3.4 0.7-2 1.6-3.8 0.9-1.9 1.9-3.7 1-1.8 2.2-3.5 1.2-1.7 2.5-3.3c0.3-0.3 0.6 0.1 0.4 0.4z"/>
	<path id="Layer" class="s2" d="m34 131.5q-1.3-0.2-2.3-0.9-1.1-0.7-1.9-1.7-0.8-1-1.2-2.2-0.4-1.2-0.3-2.5 0-0.1 0.1-0.2 0.1-0.1 0.2-0.1 0.1 0 0.1 0.1 0.1 0.1 0.1 0.2 0 1.2 0.3 2.3 0.4 1.2 1.1 2.1 0.8 0.9 1.8 1.5 1 0.7 2.1 0.9c0.4 0.1 0.2 0.6-0.1 0.5z"/>
	<path id="Layer" class="s2" d="m36.7 145.9q1.1-0.7 2-1.6 1-0.8 1.7-1.9 0.8-1 1.3-2.2 0.6-1.2 0.9-2.4c0.1-0.4 0.6-0.2 0.5 0.1q-0.3 1.3-0.9 2.5-0.6 1.3-1.3 2.3-0.8 1.1-1.8 2.1-1 0.9-2.1 1.6c-0.3 0.2-0.6-0.3-0.3-0.5z"/>
	<path id="Layer" class="s2" d="m38.7 116.7q0.5 0.2 1 0.3 0.5 0 1 0 0.5 0 0.9-0.2 0.5-0.2 0.9-0.4c0.3-0.2 0.6 0.2 0.3 0.4q-0.5 0.3-1 0.5-0.5 0.2-1.1 0.2-0.5 0.1-1.1 0-0.5-0.1-1-0.3-0.1 0-0.1-0.1-0.1 0-0.1 0 0-0.1 0-0.1 0-0.1 0-0.1 0-0.1 0-0.1 0.1-0.1 0.1-0.1 0.1 0 0.1 0 0.1 0 0.1 0z"/>
	<path id="Layer" class="s3" d="m124.3 41.8c-9.3 0-16.9-7.5-16.9-16.9 0-9.4 7.6-17 16.9-17 9.4 0 16.9 7.6 16.9 17 0 9.4-7.5 16.9-16.9 16.9z"/>
	<path id="Layer" class="s1" d="m176.2 24.2q0.1 0.2 0 0.3 0 0.1-0.1 0.2-0.1 0.1-0.2 0.1-2.6 0.6-5.2 1.1-3.6 0.6-7.2 1.1-4 0.5-7.9 0.7-1 0-1.9 0.1-1.6 0-3.2 0.1-1.6 0-3.1 0-1.6 0-3.2-0.1-1.5 0-3.1-0.1 0 0 0 0 0 0 0 0-0.1 0-0.1 0 0 0 0 0-5.5-0.4-11-1.2-2.8-0.4-5.5-1-0.7-0.1-1.5-0.3-0.1 0-0.2 0-0.1 0-0.2-0.1-0.1 0-0.2 0-0.1-0.1-0.2-0.1c-0.3-0.2-0.6-0.4-0.9-0.7q-0.1 0-0.1-0.1-0.1 0-0.1-0.1 0-0.1 0-0.2-0.1 0 0-0.1 0.2-0.9 0.7-1.7 0.4-0.8 1.1-1.5 0.6-0.7 1.4-1.2 0.7-0.5 1.6-0.8c1.1-0.5 2.2-0.5 3.3-0.5q0.5 0 1-0.1 0.5 0 1 0 0.5-0.1 1-0.2 0.4 0 0.9-0.1 0.7-0.1 1.5-0.3 0.7-0.2 1.4-0.4 0.7-0.2 1.3-0.5 0.7-0.3 1.4-0.6 0.2-0.1 0.4-0.2 0.3-0.1 0.5-0.2 0.2-0.2 0.4-0.3 0.2-0.1 0.4-0.2 0.4-0.3 0.8-0.6 0.5-0.2 0.9-0.4 0.4-0.3 0.8-0.5 0.4-0.2 0.9-0.4 0.4-0.2 0.8-0.4 0.4-0.2 0.9-0.3 0.4-0.2 0.9-0.3 0.4-0.1 0.9-0.3 0.8-0.2 1.6-0.3 0.7-0.1 1.6-0.2 0.8-0.1 1.6-0.1 0.8 0 1.6 0.1 0.6 0 1.2 0.1 0 0 0 0 0 0 0 0 0 0 0 0 0 0 0 0 0.1 0 0.1 0 0 0 0 0 0 0 0 0 0 0 0 0 0.3 0 0.6 0.1 0.6 0.1 1.2 0.2 0.6 0.1 1.2 0.3 0.6 0.2 1.1 0.3 0.6 0.2 1.2 0.4c4.1 1.5 7.7 3.9 11 6.7q0.6 0.6 1.3 1.1 0.6 0.6 1.2 1.1 0.6 0.6 1.2 1.2 0.6 0.6 1.1 1.2 0.1 0.1 0.1 0.2z"/>
	<path id="Layer" class="s1" d="m141.1 46.8q0 0.1 0 0.3 0 0.1-0.1 0.2-0.1 0.1-0.3 0.1-1.5 0.4-3 0.7-1.6 0.3-3.1 0.6-1.6 0.2-3.2 0.4-1.5 0.3-3.1 0.5-5.6 0.7-11.2 0.8-1 0-2 0.1-4.6 0-9.2-0.3-1.8-0.1-3.6-0.2-3.7-0.4-7.5-0.9-2.7-0.5-5.4-1-0.8-0.1-1.5-0.3-0.1 0-0.2 0-0.1 0-0.3-0.1-0.1 0-0.2 0-0.1-0.1-0.2-0.1c-0.3-0.2-0.6-0.5-0.9-0.7q0 0-0.1-0.1 0 0-0.1-0.1 0-0.1 0-0.2 0 0 0-0.1 0.3-0.9 0.7-1.7 0.5-0.8 1.1-1.5 0.6-0.7 1.4-1.2 0.8-0.5 1.6-0.9c1.1-0.4 2.2-0.4 3.3-0.4q0.5-0.1 1-0.1 0.5 0 1-0.1 0.5 0 1-0.1 0.5 0 1-0.1 0.4-0.1 0.8-0.2 0.5-0.1 0.9-0.2 0.5-0.1 0.9-0.3 0.4-0.1 0.8-0.2 0.5-0.2 1-0.4 0.5-0.2 1-0.4 0.4-0.3 0.9-0.5 0.5-0.2 0.9-0.5 0.1 0 0.1-0.1 0.4-0.2 0.8-0.5 0.4-0.2 0.8-0.4 0.4-0.3 0.8-0.5 0.4-0.2 0.9-0.4 0 0 0 0 0.2-0.2 0.5-0.3 0.3-0.1 0.5-0.2 0.3-0.1 0.5-0.2 0.3-0.1 0.6-0.1 0.7-0.3 1.4-0.5 0.4-0.1 0.8-0.1 0.3-0.1 0.7-0.2 0.4-0.1 0.8-0.1 0.4-0.1 0.7-0.1 1-0.1 2-0.1 0.3 0 0.6 0 0.3 0 0.7 0 0.3 0.1 0.6 0.1 0.4 0 0.7 0.1 0 0 0.1 0 0 0 0 0 0.7 0.1 1.4 0.2 0.7 0.1 1.3 0.3 0.7 0.2 1.3 0.4 0.7 0.2 1.3 0.4 0.5 0.2 0.9 0.4 0.5 0.2 1 0.4 0.5 0.2 1 0.5 0.5 0.2 1 0.5 0.5 0.2 0.9 0.5 1.6 0.9 3 1.9 1.1 0.8 2.1 1.6 1.1 0.8 2.1 1.7 1 0.9 2 1.9 0.9 0.9 1.9 1.9 0.1 0.1 0.1 0.2z"/>
	<path id="Layer" class="s4" d="m98.8 1.1l14.9 206.2-29.8 2.7v-206.3c3.5-2.7 8.6-3.2 14.9-2.6z"/>
	<path id="Layer" class="s4" d="m187.3 3.7v206.3l-29.8-2.7 14.9-206.2c6.2-0.6 11.3-0.1 14.9 2.6z"/>
	<path id="Layer" fill-rule="evenodd" class="s4" d="m188.2 4.5q0.1 0.4 0.2 0.8 0.1 0.3 0.1 0.7 0 0.4 0 0.8v204.9c0 3.3-1.9 6-4.4 6.6q-0.2 0.1-0.3 0.1-0.2 0.1-0.4 0.1-0.1 0-0.3 0-0.1 0-0.3 0h-94.8q-0.1 0-0.3 0-0.1 0-0.3 0-0.2 0-0.3-0.1-0.2 0-0.3-0.1-0.4-0.1-0.7-0.2-0.4-0.1-0.7-0.3-0.3-0.2-0.6-0.5-0.3-0.2-0.5-0.4-0.5-0.6-0.9-1.2-0.3-0.6-0.6-1.2-0.3-0.7-0.4-1.4-0.1-0.7-0.1-1.4v-204.9c0-3.8 2.6-6.8 5.7-6.8h94.8c2.3 0 4.2 1.6 5.2 3.8q0.1 0.4 0.2 0.7zm-1.6 2.3c0-2.1-1.1-3.8-2.7-4.3q-0.1-0.1-0.2-0.1-0.2-0.1-0.3-0.1-0.2 0-0.3 0-0.2 0-0.3 0h-94.8c-2.1 0-3.8 2-3.8 4.5v204.9q0 0.2 0 0.4 0 0.1 0 0.3 0.1 0.1 0.1 0.3 0 0.1 0.1 0.3c0.4 1.9 1.9 3.3 3.6 3.3h94.8c2.1 0 3.8-2.1 3.8-4.6z"/>
	<path id="Layer" class="s4" d="m83.3 62.3h104.3v1.9h-104.3z"/>
	<path id="Layer" class="s4" d="m83.3 23h104.3v1.9h-104.3z"/>
	<path id="Layer" class="s4" d="m83.3 94.1h104.3v1.9h-104.3z"/>
	<path id="Layer" class="s4" d="m115.2 0.9h1.9v120.1h-1.9z"/>
	<path id="Layer" class="s4" d="m153.7 0.9h1.9v120.1h-1.9z"/>
	<path id="Layer" class="s4" d="m202.7 207.3c1.1 0.4 2 1 2.8 1.8 0.8 0.8 1.4 1.8 1.9 2.8 0.4 1 0.6 2.2 0.6 3.3q0 0.4 0 0.8 0 0.4-0.1 0.8-0.1 0.4-0.2 0.8-0.1 0.4-0.3 0.8 0 0.1-0.1 0.3-0.1 0.1-0.1 0.3-0.1 0.1-0.2 0.2-0.1 0.2-0.1 0.3-0.6 1-1.4 1.8-0.8 0.8-1.8 1.3-0.9 0.6-2 0.9-1.1 0.3-2.2 0.3h-125q-1.2 0-2.5-0.4-1.2-0.4-2.3-1.1-1-0.7-1.8-1.7-0.8-1-1.3-2.2-0.2-0.4-0.3-0.8-0.1-0.4-0.2-0.8 0-0.4-0.1-0.8 0-0.4 0-0.8c0-1.1 0.2-2.3 0.6-3.3 0.5-1 1.1-2 1.9-2.8 0.8-0.8 1.7-1.4 2.8-1.8 1-0.5 2.1-0.7 3.2-0.7h125c1.1 0 2.2 0.2 3.2 0.7z"/>
	<path id="Layer" class="s4" d="m83.9 116.6h103.7v6.3h-103.7z"/>
	<path id="Layer" class="s4" d="m134.8 114.7h1.9q0.7 0 1.3 0.3 0.7 0.2 1.2 0.7 0.4 0.5 0.7 1.1 0.3 0.7 0.3 1.4h-8.9q0-0.7 0.3-1.4 0.2-0.6 0.7-1.1 0.5-0.5 1.2-0.7 0.6-0.3 1.3-0.3z"/>
	<path id="b6ad44ff-295b-418b-9346-03b76e49c34f" class="s5" d="m137.6 134.5c-10.9 0-19.7-8.8-19.7-19.7 0-10.9 8.8-19.6 19.7-19.6 10.8 0 19.6 8.7 19.6 19.6 0 10.9-8.8 19.7-19.6 19.7z"/>
	<path id="e8f77054-5a04-4fda-83df-6cd2e0c3cac3" class="s6" d="m115.6 95.9c0.2-2.3 1.7-4.6 6.4-5.8 0 0 8.2-10.4 19.2-4.9 0 0 5.4-1 9.4 4.6 0 0 3.9-2.3 5.6 1.8 0 0 4.6 8.4 2.9 17-1.7 8.6-2.6 9.7-2.6 9.7 0 0 2.2-17.8-10.3-16.6-12.5 1.3-22.6-3.1-25.4 6.5-2.3 8-2 12.2-2 12.2 0 0-7.9-8-5.2-14.3 1.3-3.2 1.8-6.7 2-10.2z"/>
	<path id="Layer" class="s7" d="m85.2 185.9c3.4-15.1 7.6-20.1 7.6-20.1l1.5-1.1 2.5-1.8 0.2-0.2v0.1l16.7-8 11.4-10.6q0.5-0.4 1-0.7 0.5-0.3 1-0.6 0.6-0.2 1.2-0.3 0.6-0.1 1.2-0.1l18.4-0.2q0.7 0 1.5 0.2 0.7 0.2 1.4 0.5 0.7 0.3 1.2 0.8 0.6 0.5 1.1 1.1l5.8 7.5 22.5 7.1 2.7 1.5c0 0 7.5 10 7.5 19.2 0 2.1 0.5 33.9 1.2 42.2h-108.7c0.3-4.9 0.6-34.2 1.1-36.5z"/>
	<path id="Layer" class="s4" d="m218 218.4q-0.4 0.3-0.8 0.7-1.5 1.3-3.1 2.6-2.3 2-4.7 3.8h-146.3q-4.5-3.4-8.7-7.1z"/>
	<path id="Layer" class="s6" d="m164.3 220.1h-53.7l1.1-5.4h51.5l1.1 5.4z"/>
	<path id="Layer" fill-rule="evenodd" class="s8" d="m214 196.9q0.5 0.3 0.8 0.7 0.3 0.4 0.4 0.9 0 0.5-0.1 1l-2.5 18.5q0 0 0 0.1 0 0 0 0.1-0.1 0-0.1 0.1 0 0 0 0.1-0.2 0.2-0.4 0.4-0.2 0.3-0.4 0.4-0.3 0.2-0.6 0.2-0.2 0.1-0.5 0.1h-9.1q-0.3 0-0.6-0.1-0.3 0-0.6-0.2-0.2-0.1-0.4-0.4-0.2-0.2-0.4-0.4 0-0.1 0-0.1 0-0.1-0.1-0.1 0-0.1 0-0.1 0-0.1 0-0.1l-1-11.4-0.2-2.9q-0.2 0.1-0.3 0.2-0.2 0-0.4 0.1-0.2 0-0.4 0.1-0.2 0-0.3 0c-0.9 0-1.8-0.4-2.4-1-0.6-0.6-1-1.5-1-2.4 0-0.8 0.4-1.7 1-2.3 0.6-0.6 1.5-1 2.4-1q0 0 0.1 0 0.1 0 0.2 0 0 0 0.1 0.1 0.1 0 0.1 0 0.2-0.2 0.4-0.3 0.2-0.2 0.4-0.3 0.2-0.1 0.4-0.1 0.3-0.1 0.5-0.1h14q0.5 0 1 0.2zm-16.9 6.2q0.1 0 0.3-0.1 0.1 0 0.2-0.1 0.2 0 0.3-0.1l-1-3.3q0-0.1-0.1-0.2 0-0.2 0-0.3 0-0.2 0-0.3 0-0.2 0.1-0.3-0.1 0-0.1 0c-0.7 0-1.3 0.2-1.7 0.7-0.5 0.4-0.7 1-0.7 1.6 0 0.7 0.2 1.3 0.7 1.7 0.4 0.5 1 0.7 1.7 0.7q0.1 0 0.3 0z"/>
	<path id="Layer" class="s8" d="m182.5 136.7q0.5 0.2 0.9 0.6 0.4 0.4 0.6 0.9 0.3 0.6 0.3 1.1v59.9q0 0.6-0.3 1.1-0.2 0.5-0.6 0.9-0.4 0.4-0.9 0.7-0.5 0.2-1.1 0.2h-88.6q-0.6 0-1.1-0.2-0.5-0.3-0.9-0.7-0.4-0.4-0.7-0.9-0.2-0.5-0.2-1.1v-59.9q0-0.5 0.2-1.1 0.3-0.5 0.7-0.9 0.4-0.4 0.9-0.6 0.5-0.2 1.1-0.2h88.6q0.6 0 1.1 0.2z"/>
	<path id="Layer" fill-rule="evenodd" class="s6" d="m147.5 184.5q0.2 0.1 0.4 0.3 0.1 0.1 0.2 0.3 0.1 0.2 0.1 0.4v32.8h-23v-32.8q0-0.2 0.1-0.4 0.1-0.2 0.3-0.3 0.1-0.2 0.3-0.3 0.2-0.1 0.4-0.1h20.8q0.2 0 0.4 0.1zm-9.8 18.4q0.5-0.2 0.8-0.6 0.3-0.3 0.5-0.8 0.2-0.4 0.2-0.9v-3.8c0-0.6-0.2-1.2-0.7-1.7-0.4-0.5-1.1-0.7-1.7-0.7-0.7 0-1.3 0.2-1.7 0.7-0.5 0.5-0.8 1.1-0.8 1.7v3.8q0 0.5 0.2 0.9 0.2 0.5 0.6 0.8 0.3 0.4 0.7 0.6 0.5 0.2 1 0.2 0.5 0 0.9-0.2z"/>
	<path id="Layer" class="s8" d="m148.3 217.3v3.1q0 0.2-0.1 0.3 0 0.1-0.1 0.2-0.1 0.1-0.2 0.1-0.1 0.1-0.3 0.1h-21.8q-0.1 0-0.2-0.1-0.2 0-0.2-0.1-0.1-0.1-0.2-0.2 0-0.1 0-0.3v-3.1z"/>
	<path id="Layer" class="s6" d="m179.5 198.6c-0.8 0-1.4-0.6-1.4-1.4 0-0.8 0.6-1.4 1.4-1.4 0.8 0 1.4 0.6 1.4 1.4 0 0.8-0.6 1.4-1.4 1.4z"/>
	<path id="Layer" class="s6" d="m104.2 195.2q0.1 0 0.1 0.1 0.1 0.1 0.1 0.1 0.1 0.1 0.1 0.2v2.6q0 0.2-0.2 0.3-0.1 0.1-0.3 0.1-0.2 0-0.4-0.1-0.1-0.1-0.1-0.3v-2.6q0-0.1 0-0.2 0.1 0 0.1-0.1 0.1-0.1 0.2-0.1 0.1-0.1 0.2-0.1 0.1 0 0.2 0.1z"/>
	<path id="Layer" class="s6" d="m106.8 195.2q0.1 0 0.2 0.1 0.1 0.1 0.1 0.1 0 0.1 0 0.2v2.6q0 0.2-0.1 0.3-0.2 0.1-0.4 0.1-0.2 0-0.3-0.1-0.1-0.1-0.1-0.3v-2.6q0-0.1 0-0.2 0 0 0.1-0.1 0.1-0.1 0.2-0.1 0-0.1 0.1-0.1 0.1 0 0.2 0.1z"/>
	<path id="Layer" class="s6" d="m109.5 195.2q0.1 0 0.1 0.1 0.1 0.1 0.2 0.1 0 0.1 0 0.2v2.6q0 0.2-0.2 0.3-0.1 0.1-0.3 0.1-0.2 0-0.3-0.1-0.2-0.1-0.2-0.3v-2.6q0-0.1 0-0.2 0.1 0 0.2-0.1 0-0.1 0.1-0.1 0.1-0.1 0.2-0.1 0.1 0 0.2 0.1z"/>
	<path id="Layer" class="s6" d="m112.1 195.2q0.1 0 0.2 0.1 0.1 0.1 0.1 0.1 0 0.1 0 0.2v2.6q0 0.2-0.1 0.3-0.1 0.1-0.3 0.1-0.2 0-0.4-0.1-0.1-0.1-0.1-0.3v-2.6q0-0.1 0-0.2 0 0 0.1-0.1 0.1-0.1 0.2-0.1 0.1-0.1 0.2-0.1 0.1 0 0.1 0.1z"/>
	<path id="Layer" class="s5" d="m114.1 218.7c-4.1 0-7.4-3.4-7.4-7.5 0-4.1 3.3-7.4 7.4-7.4 4.1 0 7.4 3.3 7.4 7.4 0 4.1-3.3 7.5-7.4 7.5z"/>
	<path id="Layer" class="s5" d="m165.8 220.1c-4.1 0-7.4-3.3-7.4-7.4 0-4.1 3.3-7.4 7.4-7.4 4.1 0 7.4 3.3 7.4 7.4 0 4.1-3.3 7.4-7.4 7.4z"/>
	<path id="Layer" class="s8" d="m245 128.2q1.4 2.5 2.7 5.1 1.3 2.6 2.4 5.2 1.2 2.6 2.3 5.2c-4.6-3.8-5.7-10.4-9.8-14.7-0.7-0.7-1.6-1.4-2.6-1.4-0.8 0-1.5 0.5-2.2 0.9-1.8 1-4.5 9.2-6.7 9.4-2.9 0.2-5.3-7.7-8.3-7.4v-0.1q1.4-1.2 2.9-2.3 1.4-1.1 2.9-2.2 1.5-1.1 3-2.2 1.5-1 3-2c1.4-0.9 3-1.8 4.6-1.4 1.3 0.4 2.2 1.7 2.9 2.9q1.5 2.5 2.9 5z"/>
	<path id="Layer" class="s8" d="m250 133.8q3.2 5.8 6.8 11.4 0 0.2-0.1 0.4-0.4-0.7-0.8-1.4-3.3-5.1-6.2-10.3-1.4-2.6-2.7-5.1-1-2-2-4-0.3-0.5-0.5-1.1-0.6-1.4-1.3-2.7c-0.5-1-1.1-2.1-2.1-2.8q-0.1-0.1-0.3-0.2-0.2-0.1-0.3-0.2-0.2 0-0.4-0.1-0.2 0-0.4 0-0.3 0-0.6 0-0.2 0-0.5 0.1-0.3 0.1-0.5 0.2-0.3 0.1-0.5 0.3-1.8 0.9-3.6 2-1.7 1-3.4 2.2-1.7 1.1-3.3 2.4-1.6 1.3-3.1 2.6-1.5 1.4-3 2.8-1.4 1.4-2.8 2.9-1.4 1.5-2.6 3.1-1.3 1.6-2.5 3.3c-0.1 0.1-0.3 0-0.2-0.1q0.6-0.9 1.2-1.6 1.8-2.5 3.9-4.8 2-2.3 4.3-4.4 2.2-2.1 4.6-4 2.5-1.9 5-3.5 1.8-1.2 3.6-2.2 0.9-0.5 1.8-1 0.2-0.1 0.5-0.2 0.2-0.1 0.5-0.2 0.2-0.1 0.5-0.1 0.2-0.1 0.5-0.1c2.3 0 3.6 2.6 4.4 4.4q0.4 0.9 0.8 1.7 1.5 3.2 3.2 6.4 1 1.9 2.1 3.9z"/>
	<path id="Layer" class="s8" d="m224 126.2q-0.3-0.2-0.5-0.5c-1-1.2-2.2-2.4-3.7-3.1q-0.3-0.1-0.6-0.2-0.2-0.1-0.5-0.2-0.3 0-0.6-0.1-0.3 0-0.6 0-0.3 0-0.6 0.1-0.3 0-0.6 0.1-0.3 0-0.6 0.1-0.3 0.1-0.6 0.2-0.5 0.2-1 0.5-0.6 0.3-1.2 0.6-1.1 0.6-2.1 1.3-2.1 1.3-4.1 2.8-1 0.7-2 1.6-0.9 0.7-1.7 1.5c-0.2 0.2-0.3 0-0.2-0.1q0.2-0.3 0.4-0.5 0.7-0.6 1.4-1.1 1.2-1.1 2.5-2 2-1.5 4.2-2.8 1.1-0.7 2.2-1.3 0.3-0.1 0.6-0.3 0.2-0.1 0.4-0.2 0.2-0.1 0.4-0.2 0.2-0.1 0.4-0.1 0.2-0.1 0.5-0.2 0.2-0.1 0.5-0.1 0.3-0.1 0.7-0.1 0.3-0.1 0.6 0 0.3 0 0.6 0 0.3 0 0.6 0.1 0.3 0.1 0.5 0.2 0.3 0.1 0.6 0.2 0.3 0.1 0.5 0.3c1.5 0.8 2.6 2.1 3.7 3.3 0.1 0.1 0 0.3-0.1 0.2z"/>
	<path id="Layer" class="s8" d="m213.2 132q-0.1 0-0.3 0-0.1 0-0.2-0.1-0.2 0-0.3-0.1-0.1 0-0.2-0.1c-0.9-0.6-0.8-2.1 0-4.5q0.2-0.5 0.5-1 0.2-0.4 0.6-0.8 0.4-0.4 0.8-0.7 0.4-0.3 0.9-0.5 0.4-0.2 0.9-0.3 0.5-0.1 1-0.1 0.5 0 1 0.1 0.4 0.1 0.9 0.3 0.2 0 0.3 0.1 0.3 0.2 0.5 0.3 0.3 0.2 0.5 0.4 0.3 0.1 0.5 0.3 0.2 0.2 0.5 0.4 0.1 0.2 0.3 0.3 0.2 0.2 0.4 0.3 0.2 0.2 0.5 0.3 0.2 0.2 0.4 0.3l0.2 0.1-0.2 0.1c-4.6 3.3-7.8 4.9-9.5 4.9z"/>
	<path id="Layer" class="s8" d="m231.3 112.6q0.1 0 0.3 0 0.2 0 0.3 0 0.2 0 0.3-0.1c0.5 2.6-0.6 5.3-2.8 6.7-2.2 1.5-5 1.5-7.2 0-2.2-1.4-3.3-4.1-2.8-6.7 0.5-2.6 2.5-4.6 5.1-5.1q0.2 1.1 0.8 2.1 0.6 0.9 1.5 1.7 0.9 0.7 1.9 1.1 1.1 0.3 2.2 0.3 0.2 0 0.4 0z"/>
	<path id="Layer" class="s9" d="m55.7 123.2c-5.4 0-9.7-4.4-9.7-9.8 0-5.4 4.3-9.8 9.7-9.8 5.4 0 9.8 4.4 9.8 9.8 0 5.4-4.4 9.8-9.8 9.8z"/>
	<path id="Layer" class="s10" d="m65.5 123.2c-5.4 0-9.8-4.4-9.8-9.8 0-5.4 4.4-9.8 9.8-9.8 5.4 0 9.8 4.4 9.8 9.8 0 5.4-4.4 9.8-9.8 9.8z"/>
	<path id="Layer" class="s11" d="m60.7 115.4c-5.4 0-9.8-4.4-9.8-9.8 0-5.4 4.4-9.8 9.8-9.8 5.4 0 9.8 4.4 9.8 9.8 0 5.4-4.4 9.8-9.8 9.8z"/>
	<path id="Layer" class="s8" d="m61.1 110.7l25.1-7.9 0.2 0.6-25.1 7.8z"/>
	<path id="Layer" class="s8" d="m86.4 104.1c-0.6 0-1.1-0.5-1.1-1.1 0-0.6 0.5-1.1 1.1-1.1 0.6 0 1.1 0.5 1.1 1.1 0 0.6-0.5 1.1-1.1 1.1z"/>
	<path id="Layer" class="s8" d="m249.3 154.3c1.6 1.2 3.2 2.4 5.1 3.3q-0.1 0.2-0.1 0.4-0.4-0.2-0.7-0.3c-1.9-1-3.5-2.3-5.2-3.5q-0.3-0.2-0.7-0.4-0.3-0.2-0.7-0.4-0.3-0.2-0.7-0.3-0.3-0.2-0.7-0.3-0.4-0.1-0.8-0.2-0.4-0.1-0.8-0.1-0.4-0.1-0.8-0.1-0.4 0-0.8 0c-4.5 0.2-8.4 2.9-12.6 4.3-2.1 0.7-4.2 1-6.4 0.6-2.1-0.4-4-1.6-5.9-2.6-1.9-1-3.9-2-6.1-2-1.8 0-3.6 0.7-4.6 2.3q0 0-0.1 0.1-0.1 0-0.2-0.1-0.1 0-0.1-0.1 0-0.1 0-0.2 0.1-0.1 0.2-0.2 0.1-0.1 0.2-0.3 0.1-0.1 0.2-0.2 0.1-0.1 0.2-0.2c1.3-1.2 3.1-1.7 4.8-1.5 2.1 0.1 4.1 1.2 6 2.2 2 1.1 4 2.3 6.3 2.5 2.3 0.3 4.5-0.3 6.6-1.1 4.1-1.6 8.1-4.2 12.7-3.9 2.1 0.1 3.9 1.1 5.7 2.3z"/>
	<path id="Layer" class="s7" d="m70.8 71.9v0.5q-0.1 0-0.2 0 0 0-0.1 0-0.1 0-0.2 0 0 0-0.1 0h-3v6.4q0 0.7-0.3 1.4-0.2 0.6-0.7 1.1-0.5 0.5-1.2 0.8-0.6 0.3-1.4 0.3h-4.4v0.9q0 0.2 0.1 0.3 0 0.2 0 0.3 0 0.2 0.1 0.3 0 0.2 0.1 0.3h-0.6q-0.1-0.1-0.1-0.3-0.1-0.1-0.1-0.3 0-0.1 0-0.3 0-0.1 0-0.3v-0.9h-2.4v-0.6h2.4v-6.4q0-0.7 0.2-1.4 0.3-0.6 0.8-1.1 0.5-0.5 1.2-0.8 0.6-0.3 1.3-0.3h4.4v-1h0.6v1h3q0.1 0 0.1 0 0.1 0 0.2 0 0.1 0 0.1 0 0.1 0.1 0.2 0.1z"/>
	<path id="Layer" fill-rule="evenodd" class="s8" d="m65 67.5q0.7 0.3 1.2 0.8 0.5 0.5 0.7 1.2 0.3 0.6 0.3 1.3v8q0 0.7-0.3 1.4-0.2 0.6-0.7 1.1-0.5 0.5-1.2 0.8-0.6 0.3-1.4 0.3h-7.9q-0.7 0-1.4-0.3-0.6-0.3-1.1-0.8-0.5-0.5-0.8-1.1-0.3-0.7-0.3-1.4v-8q0-0.7 0.3-1.3 0.3-0.7 0.8-1.2 0.5-0.5 1.1-0.8 0.7-0.2 1.4-0.2h7.9q0.8 0 1.4 0.2zm1.6 3.3q0-0.6-0.2-1.1-0.2-0.6-0.6-1-0.5-0.4-1-0.6-0.6-0.3-1.2-0.3h-7.9q-0.6 0-1.1 0.3-0.6 0.2-1 0.6-0.4 0.4-0.7 1-0.2 0.5-0.2 1.1v8q0 0.6 0.2 1.1 0.3 0.6 0.7 1 0.4 0.4 1 0.7 0.5 0.2 1.1 0.2h7.9q0.6 0 1.2-0.2 0.5-0.3 1-0.7 0.4-0.4 0.6-1 0.2-0.5 0.2-1.1z"/>
	<path id="Layer" fill-rule="evenodd" class="s8" d="m71.9 72.3q0.6 0.3 1 0.8 0.4 0.5 0.6 1.1 0.3 0.6 0.3 1.2v7.9q0 0.8-0.3 1.4-0.3 0.7-0.8 1.2-0.5 0.5-1.1 0.8-0.7 0.2-1.4 0.2h-8q-0.5 0-1-0.1-0.6-0.2-1-0.5-0.5-0.4-0.8-0.8-0.4-0.5-0.5-1-0.1-0.1-0.1-0.3-0.1-0.1-0.1-0.3 0-0.1 0-0.3 0-0.1 0-0.3v-0.9h0.5v0.9q0 0.6 0.3 1.2 0.2 0.5 0.6 1 0.4 0.4 1 0.6 0.5 0.3 1.1 0.3h8q0.6 0 1.1-0.3 0.6-0.2 1-0.6 0.4-0.5 0.7-1 0.2-0.6 0.2-1.2v-7.9q0-0.6-0.2-1.2-0.3-0.5-0.7-0.9-0.4-0.5-1-0.7-0.5-0.2-1.1-0.2h-8q-0.6 0-1.1 0.2-0.6 0.2-1 0.7-0.4 0.4-0.6 0.9-0.3 0.6-0.3 1.2v6.4h-0.5v-6.4q0-0.7 0.2-1.4 0.3-0.6 0.8-1.1 0.5-0.5 1.2-0.8 0.6-0.3 1.3-0.3h8q0.1 0 0.1 0 0.1 0 0.2 0 0.1 0 0.1 0 0.1 0.1 0.2 0.1 0.6 0.1 1.1 0.4z"/>
	<path id="Layer" class="s7" d="m53.4 156.1q0.2 0.1 0.3 0.2 0.1 0.2 0.2 0.3 0 0.2 0 0.4v13.7q0 0.2 0 0.3-0.1 0.2-0.2 0.3-0.1 0.1-0.3 0.2-0.2 0.1-0.3 0.1h-30.6q-0.6-1.6-1.2-3.1-0.5-1.6-1-3.2-0.5-1.5-1-3.1-0.5-1.6-0.9-3.2v-2q0-0.2 0.1-0.4 0.1-0.1 0.2-0.3 0.1-0.1 0.3-0.2 0.1 0 0.3 0h33.8q0.1 0 0.3 0z"/>
	<path id="Layer" class="s12" d="m49.8 178.2h-24.6q-0.5-1.1-0.9-2.2h25.5c1.4 0 1.4 2.2 0 2.2z"/>
	<path id="Layer" class="s12" d="m49.8 183h-22.3q-0.5-1-1-2.1h23.3c1.4 0 1.4 2.2 0 2.1z"/>
	<path id="Layer" class="s12" d="m49.8 187.9h-19.7q-0.6-1-1.1-2.1h20.8c1.4 0 1.4 2.1 0 2.1z"/>
	<path id="Layer" class="s8" d="m226.1 54.7q0.6 0.2 1 0.7 0.5 0.5 0.7 1.1 0.3 0.6 0.3 1.2v8q0 0.6-0.3 1.2-0.2 0.6-0.7 1.1-0.4 0.5-1 0.7-0.6 0.3-1.3 0.3h-0.2q0.2 0 0.4-0.1 0.1 0 0.3 0 0.1 0 0.2-0.1 0.2 0 0.3-0.1h-0.4q-0.6 0-1.2-0.2-0.5-0.2-1-0.6-0.4-0.5-0.6-1-0.2-0.6-0.2-1.2v-7.9q0-0.6 0.2-1.2 0.2-0.5 0.6-0.9 0.5-0.5 1-0.7 0.6-0.2 1.2-0.2h0.7q-0.2-0.1-0.3-0.2-0.2 0-0.4-0.1-0.2 0-0.4 0-0.2-0.1-0.4-0.1h0.2q0.7 0 1.3 0.3z"/>
	<path id="Layer" class="s13" d="m226.1 54.7q0.6 0.2 1 0.7 0.5 0.5 0.7 1.1 0.3 0.6 0.3 1.2v8q0 0.6-0.3 1.2-0.2 0.6-0.7 1.1-0.4 0.5-1 0.7-0.6 0.3-1.3 0.3h-0.2q0.2 0 0.4-0.1 0.1 0 0.3 0 0.1 0 0.2-0.1 0.2 0 0.3-0.1h-0.4q-0.6 0-1.2-0.2-0.5-0.2-1-0.6-0.4-0.5-0.6-1-0.2-0.6-0.2-1.2v-7.9q0-0.6 0.2-1.2 0.2-0.5 0.6-0.9 0.5-0.5 1-0.7 0.6-0.2 1.2-0.2h0.7q-0.2-0.1-0.3-0.2-0.2 0-0.4-0.1-0.2 0-0.4 0-0.2-0.1-0.4-0.1h0.2q0.7 0 1.3 0.3z"/>
	<path id="Layer" class="s7" d="m205 54.7q0.6 0.2 1.1 0.7 0.4 0.5 0.7 1.1 0.2 0.6 0.2 1.2v8q0 0.6-0.2 1.2-0.3 0.6-0.7 1.1-0.5 0.5-1.1 0.7-0.6 0.3-1.2 0.3h-0.2q0.1 0 0.3-0.1 0.1 0 0.3 0 0.1 0 0.3-0.1 0.1 0 0.3-0.1h-0.5q-0.6 0-1.1-0.2-0.6-0.2-1-0.6-0.4-0.5-0.7-1-0.2-0.6-0.2-1.2v-7.9q0-0.6 0.2-1.2 0.3-0.5 0.7-0.9 0.4-0.5 1-0.7 0.5-0.2 1.1-0.2h0.7q-0.1-0.1-0.3-0.2-0.2 0-0.4-0.1-0.1 0-0.3 0-0.2-0.1-0.4-0.1h0.2q0.6 0 1.2 0.3z"/>
	<path id="Layer" class="s13" d="m205 54.7q0.6 0.2 1.1 0.7 0.4 0.5 0.7 1.1 0.2 0.6 0.2 1.2v8q0 0.6-0.2 1.2-0.3 0.6-0.7 1.1-0.5 0.5-1.1 0.7-0.6 0.3-1.2 0.3h-0.2q0.1 0 0.3-0.1 0.1 0 0.3 0 0.1 0 0.3-0.1 0.1 0 0.3-0.1h-0.5q-0.6 0-1.1-0.2-0.6-0.2-1-0.6-0.4-0.5-0.7-1-0.2-0.6-0.2-1.2v-7.9q0-0.6 0.2-1.2 0.3-0.5 0.7-0.9 0.4-0.5 1-0.7 0.5-0.2 1.1-0.2h0.7q-0.1-0.1-0.3-0.2-0.2 0-0.4-0.1-0.1 0-0.3 0-0.2-0.1-0.4-0.1h0.2q0.6 0 1.2 0.3z"/>
	<path id="Layer" class="s7" d="m204.8 68.8q-0.1 0-0.3 0.1-0.1 0-0.3 0-0.1 0.1-0.3 0.1-0.1 0-0.3 0h-7.9q-0.7 0-1.3-0.3-0.6-0.2-1-0.7-0.5-0.4-0.8-1-0.2-0.6-0.2-1.3v-8q0-0.6 0.2-1.2 0.3-0.6 0.8-1.1 0.4-0.4 1-0.7 0.6-0.2 1.3-0.2h7.9q0.2 0 0.4 0 0.2 0 0.4 0 0.2 0.1 0.3 0.1 0.2 0.1 0.4 0.2h-0.8q-0.6 0-1.1 0.2-0.6 0.3-1 0.7-0.4 0.4-0.6 1-0.3 0.5-0.3 1.1v8q0 0.6 0.3 1.1 0.2 0.6 0.6 1 0.4 0.4 1 0.6 0.5 0.3 1.1 0.3z"/>
	<path id="Layer" class="s8" d="m225.9 68.8q-0.2 0-0.3 0.1-0.2 0-0.3 0-0.2 0.1-0.3 0.1-0.2 0-0.3 0h-8q-0.6 0-1.2-0.3-0.6-0.2-1.1-0.7-0.4-0.4-0.7-1-0.2-0.6-0.2-1.3v-8q0-0.6 0.2-1.2 0.3-0.6 0.7-1.1 0.5-0.4 1.1-0.7 0.6-0.2 1.2-0.2h8q0.2 0 0.4 0 0.1 0 0.3 0 0.2 0.1 0.4 0.1 0.2 0.1 0.3 0.2h-0.7q-0.6 0-1.2 0.2-0.5 0.3-0.9 0.7-0.4 0.4-0.7 1-0.2 0.5-0.2 1.1v8q0 0.6 0.2 1.1 0.3 0.6 0.7 1 0.4 0.4 0.9 0.6 0.6 0.3 1.2 0.3z"/>
	<path id="Layer" class="s3" d="m234.8 56.4q1.1 1.5 2.1 3.1 1.1 1.5 2.1 3.1 1 1.6 1.9 3.2 1 1.6 1.9 3.2h-5q-0.7 0-1.3-0.3-0.6-0.2-1-0.7-0.5-0.4-0.7-1-0.3-0.6-0.3-1.3v-8q0-0.1 0-0.3 0-0.2 0.1-0.3 0-0.2 0.1-0.4 0-0.1 0.1-0.3z"/>
	<path id="Layer" class="s4" d="m225 73.9q0 0.3-0.3 0.6-0.2 0.3-0.6 0.4-0.4 0.1-0.7-0.1h-0.1q-0.2-0.1-0.5-0.1-0.2 0-0.4 0.1-0.2 0.2-0.3 0.4-0.1 0.2 0 0.4l0.5 6.3q0.1 0.3 0 0.5-0.1 0.2-0.2 0.4-0.2 0.1-0.4 0.3-0.2 0.1-0.4 0.1l-0.8 0.1q-0.1 0-0.1 0-0.3 0-0.5-0.1-0.2-0.1-0.3-0.2-0.2-0.2-0.3-0.4-0.1-0.2-0.1-0.4l-0.5-6.1q-0.1-0.2-0.2-0.4-0.1-0.2-0.3-0.3-0.2-0.1-0.4-0.1-0.2 0-0.4 0.2l-0.6 0.3q-0.3 0.2-0.7 0.2-0.3 0-0.6-0.2-0.3-0.3-0.4-0.6-0.1-0.3 0-0.7l1.7-5.5 0.9-2.8q0.1-0.3 0.3-0.5 0.3-0.2 0.6-0.3 0.3 0 0.6 0.1 0.3 0.2 0.5 0.4l2 3.1 2.8 4.2q0.2 0.3 0.2 0.7z"/>
</svg>