<svg version="1.2" xmlns="http://www.w3.org/2000/svg" viewBox="0 0 24 15" width="38" height="24">
	<title>tailwindcss-mark</title>
	<defs>
		<clipPath clipPathUnits="userSpaceOnUse" id="cp1">
			<path d="m0 0h24v14.73h-24z"/>
		</clipPath>
	</defs>
	<style>
		.s0 { fill: #38bdf8 } 
	</style>
	<g id="Clip-Path" clip-path="url(#cp1)">
		<g id="Layer">
			<path id="Layer" fill-rule="evenodd" class="s0" d="m17.5 2.6c0.7 0.8 1.4 1.5 2.3 1.7q2.4 0.6 4.2-1.8-1.2 4.9-6 4.9c-3 0-4.3-1.4-5.5-2.7-0.7-0.7-1.4-1.4-2.3-1.6q-2.4-0.6-4.2 1.8 1.2-4.9 6-4.9c3 0 4.3 1.4 5.5 2.6zm-11.5 4.8q-4.8 0-6 4.9 1.8-2.5 4.2-1.9c0.9 0.3 1.6 0.9 2.3 1.7 1.2 1.2 2.5 2.6 5.5 2.6q4.8 0 6-4.9-1.8 2.5-4.2 1.9c-0.9-0.3-1.6-1-2.3-1.7-1.2-1.2-2.5-2.6-5.5-2.6z"/>
		</g>
	</g>
</svg>